Patient4_TMGait_0pt4_01_right_20_EMG.mot
version=1
nRows=23
nColumns=33
inDegrees=no
endheader
time	1LAddLong	2LGlutMax	3LGlutMed	4LIliopsoas	5LSemiMemb	6LBicFemLong	7LRecFem	8LVastMed	9LVastLat	10LGasMed	11LTibAnt	12lTibPost	13LPeroneusLong	14LSol	15LExtDigLong	16LFlexDigLong	17RAddLong	18RGlutMax	19RGlutMed	20RIliopsoas	21RSemiMemb	22RBicFemLong	23RRecFem	24RVastMed	25RVastLat	26RGasMed	27RTibAnt	28RTibPost	29RPeroneusLong	30RSol	31RExtDigLong	32RFlexDigLong
27.115	0.015717	0.014038	-0.01709	-0.015869	0.014191	-0.033722	-0.017242	0.004578	0.077972	0.037537	-0.13687	0.004578	-0.056915	-0.072327	0.15198	0.001984	-0.001678	-0.016174	-0.23193	0.033264	-0.007782	-0.09491	-0.31799	-0.03952	0.016022	0.012512	-0.097351	-0.001068	-0.12054	0.002899	-0.002136	0.012054
27.116	0.024872	0.0177	0.15869	-0.023193	0.021057	0.015564	-0.037842	0.015259	0.036163	0.025177	-0.021057	-0.004578	-0.28137	-0.06485	0.23331	0.000305	0.010071	0.031281	0.27649	0.10117	0	-0.14114	-0.56564	-0.067902	0.024261	0.007782	-0.14221	-0.001526	0.33096	-0.038757	0.000916	0.015717
27.117	0.018768	0.022125	0.10788	0.023804	0.005646	0.10269	-0.072937	0.006409	0.012207	0.010071	0.03891	-0.013123	0.028229	-0.14206	0.083923	-0.011902	-0.005493	-0.037079	0.097198	0.11566	-0.02182	-0.20844	-0.65582	-0.13412	0.015869	0.00351	0.028992	-0.011444	0.42068	0.02655	0.001831	0.015411
27.118	0.014648	0.005646	0.052948	0.023346	-0.000916	0.15869	-0.058746	0.016632	0.02243	0.009003	0.00412	0.010681	0.016632	-0.072021	-0.19547	-0.002594	0.004425	-0.065918	0.09613	0.1178	0.011139	-0.2684	-0.52567	-0.095062	0.013275	-0.000763	0.28686	-0.001984	-0.41199	-0.043793	-0.001984	0.014191
27.119	0.016022	0.036469	0.011292	-0.002441	-0.011444	0.15884	-0.010681	0.023499	0.00824	0.050201	0.070953	-0.003052	-0.081787	-0.05188	-0.39429	-0.005493	0.009918	-0.045624	0.31326	0.073242	-0.008392	-0.31891	-0.34546	-0.086975	0.001678	0.004578	-0.24841	-0.002747	-0.33371	-0.046539	-0.000153	0.013428
27.12	0.01236	0.029755	0.15625	-0.016022	0.002594	0.17654	-0.018768	0.01358	0.00885	0.08606	0.17364	0.00473	-0.061646	-0.11017	-0.13351	-0.013733	-0.002899	-0.093842	0.10346	0.066223	0.01297	-0.39536	-0.23438	-0.005188	0.010681	0.002594	-0.66147	0	-0.037079	-0.021667	-0.001068	0.018921
27.121	0.017242	0.035248	0.16586	-0.010223	0.004425	0.20371	-0.010376	0.027008	0.026398	0.083923	0.24155	-0.014191	-0.091553	-0.06958	-0.13458	-0.007629	-0.010529	-0.060883	-0.037842	0.008698	-0.16357	-0.38971	-0.12726	-0.028229	0.018463	0.01297	-0.31677	-0.003357	0.3447	-0.040588	-0.001678	0.022583
27.122	0.013733	0.017395	0.016479	0.001526	0.004425	0.15396	0.001068	0.011292	0.018616	0.028076	-0.095673	0.012512	0.059967	-0.014038	0.053101	0.006104	-0.010681	-0.06546	-0.044861	-0.007324	-0.25742	-0.50095	-0.064545	-0.046997	0.000916	0.007019	0.062256	-0.007477	0.3566	-0.048065	-0.001678	0.011749
27.123	0.014496	0.033569	0.056915	0.019531	-0.011292	0.021667	0.006409	0.01297	0.018616	0.021057	-0.075226	-0.017853	0.078278	0.003052	0.23209	0.000153	0.007629	-0.089722	0.1059	-0.034637	0.074768	-0.51895	0.046387	-0.085144	0.005798	0.003357	-0.1712	-0.00946	0.17319	-0.02182	-0.00351	0.021667
27.124	0.015564	0.015106	0.066071	0.019684	-0.008392	-0.23422	0.002899	0.010223	0.021057	0.045929	-0.13123	-0.008087	0.029144	-0.089264	0.46631	-0.005188	0.013123	-0.078125	0.12573	-0.056763	0.10529	-0.61676	0.083771	-0.020599	0.014496	0.00412	-0.19165	-0.005493	0.14099	0.019989	-0.006561	0.028992
27.125	0.082703	0.010834	0.074615	0.015564	-0.003052	-0.16937	0.009155	0.009766	-0.00473	0.063324	-0.16617	0.011749	-0.023956	-0.14038	-0.19318	-0.002289	0.033875	-0.05722	0.2005	-0.068817	0.033112	-0.66971	0.1506	-0.037384	0.014648	-0.020905	-0.3096	-0.002899	0.048981	-0.010986	-0.001678	0.020752
27.126	0.03479	0.023956	0.18158	0.022888	-0.003967	-0.20889	0.005951	0.02121	-0.045776	0.051575	-0.06424	-0.007782	-0.003204	-0.062714	-0.45746	-0.016174	0.06012	-0.014343	0.29373	-0.11002	0.000916	-0.67795	0.1918	0.030212	0.046692	-0.032349	-0.12314	-0.007782	-0.24155	-0.053101	-0.000763	0.022736
27.127	0.06073	-0.001221	0.11261	-0.005798	0.005798	-0.33783	-0.034485	0.018005	-0.067139	0.048523	-0.019379	-0.00351	0.067596	-0.01709	0.087738	-0.009766	0.060883	-0.051575	0.26352	-0.12558	-0.030975	-0.70694	0.12482	-0.075836	0.012207	-0.03418	-0.10025	-0.006104	-0.50171	-0.049896	0.000305	0.013123
27.128	0.015411	-0.023346	0.13184	-0.020142	0.012665	-0.20844	-0.10696	0.024261	-0.043945	0.04715	-0.056	0.006104	0.14038	0.012512	-0.26169	-0.000763	0.054626	-0.060272	0.18921	-0.16754	-0.11993	-0.64545	0.052338	-0.13473	-0.002594	-0.032196	-0.15991	-0.005341	-0.36072	-0.02533	-0.002441	0.024567
27.129	0.028381	0.020905	0.10849	-0.021057	0.009003	-0.039063	-0.02594	0.027618	-0.028992	0.01297	-0.11917	0.003052	0.086975	-0.090332	-0.26794	-0.002594	-0.005646	-0.085449	0.000305	-0.16312	-0.16312	-0.64255	-0.037994	-0.14114	0.020447	-0.026093	-0.41092	-0.003662	0.16617	-0.075226	-0.000305	0.023499
27.13	0.014801	0.017853	0.088196	0.001678	0.009155	0.041504	-0.039825	0.014343	0.00412	0.01236	-0.009155	0.003662	0.046997	-0.1738	-0.26077	-0.007935	-0.024109	-0.091248	-0.070496	-0.00412	-0.037537	-0.728	-0.084534	-0.049896	0.00946	-0.015564	-0.24918	0.000458	1.1224	-0.19745	-0.001831	0.022125
27.131	0.01709	-0.002747	0.083466	0.031128	0.011444	0.03418	-0.071564	0.00885	0.036774	0.03067	0.044556	0.008698	-0.033875	-0.052948	-0.092163	-0.018005	-0.035706	-0.095978	-0.13229	0.22583	0.020752	-0.5748	-0.041962	0.021973	0.028687	-0.0177	0.16281	-0.005341	0.54596	-0.18539	0.000458	0.021667
27.132	0.0177	0.016174	0.040436	0.031738	0.004883	-0.002594	-0.085907	0.005035	0.14648	-0.004425	-0.13046	0.008698	0.18951	0.059814	-0.14175	0.001678	-0.028992	-0.068054	-0.18387	0.10651	0.009308	-0.47272	-0.008545	0.02243	0.024414	-0.022125	0.33493	-0.006256	-0.047302	-0.066986	-0.002441	0.018005
27.133	0.018311	0.001068	-0.00946	0.01358	-0.005798	-0.014038	-0.049133	-0.003815	0.1236	-0.01358	-0.007019	0.001068	0.23743	-0.035095	0.11322	0.003204	-0.02182	-0.093231	-0.26474	-0.20386	0.094147	-0.41977	0.10132	-0.021057	0.029449	-0.021057	0.41214	-0.001373	0.22797	0.00824	-0.001526	0.016327
27.134	0.021667	-0.006409	0.044556	-0.009308	0.001831	-0.003204	-0.030212	0.004883	0.093994	0.014954	-0.1001	-0.003052	0.24231	-0.049591	0.60654	0.001373	0.024109	-0.10925	-0.25528	-0.2121	0.005951	-0.42755	0.15381	-0.046082	0.015411	0.003357	0.37705	-0.007019	-0.042419	0.065308	-0.003357	0.010681
27.135	0.014801	0.011597	0.088806	0.001221	0.010071	-0.023804	-0.022736	-0.005493	0.05722	-0.002441	-0.15488	-0.001526	0.31281	-0.055847	0.40436	-0.00061	0.059357	-0.15442	-0.32318	-0.11246	-0.11398	-0.38666	0.076447	-0.061798	0.020447	0.00946	0.37384	-0.007172	0.04776	0.027924	-0.001526	0.005493
27.136	0.018005	0.006256	0.080872	0.019836	0.000153	-0.047302	-0.022278	-0.005035	0.036469	0.021362	0.006714	-0.000916	0.035095	-0.029602	-0.13412	0.003357	0.077515	-0.11047	-0.13107	-0.071411	-0.31555	-0.23605	0.11505	-0.066376	0.010376	0.019836	0.15106	-0.00885	0.043488	0.12665	-0.005493	0.008392
27.137	0.012512	-0.007019	0.007019	0.012054	0.001526	0.006104	0.016479	0.011902	0.016022	0.04776	0.066986	-0.007019	-0.35339	-0.11292	-0.40085	-0.009766	0.072479	-0.071106	-0.12054	0.17532	-0.43716	-0.04776	0.027313	-0.034332	-0.000305	0.025482	0.033875	-0.007477	-0.50736	0.2269	0.002899	0.003967
